<?xml version="1.0" encoding="utf-8"?>
<!-- Generator: Adobe Illustrator 26.0.1, SVG Export Plug-In . SVG Version: 6.00 Build 0)  -->
<svg version="1.1" id="Layer_1" xmlns="http://www.w3.org/2000/svg" xmlns:xlink="http://www.w3.org/1999/xlink" x="0px" y="0px"
	 viewBox="0 0 784.08 468.88" style="enable-background:new 0 0 784.08 468.88;" xml:space="preserve">
<style type="text/css">
	.st0{fill:#25303F;}
	.st1{fill:#F4991A;}
</style>
<path class="st0" d="M220.96,170.29c0,9.65,1.04,17.47,2.87,23.21c2.09,5.74,4.69,12,8.34,18.78c1.3,2.09,1.83,4.17,1.83,6
	c0,2.61-1.56,5.22-4.95,7.82l-16.43,10.95c-2.35,1.56-4.69,2.35-6.78,2.35c-2.61,0-5.22-1.3-7.82-3.65
	c-3.65-3.91-6.78-8.08-9.39-12.26c-2.61-4.43-5.22-9.39-8.08-15.39c-20.34,23.99-45.9,35.99-76.67,35.99
	c-21.91,0-39.38-6.26-52.16-18.78c-12.78-12.52-19.3-29.21-19.3-50.07c0-22.17,7.82-40.16,23.73-53.72s37.03-20.34,63.89-20.34
	c8.87,0,17.99,0.78,27.64,2.09c9.65,1.3,19.56,3.39,29.99,5.74V89.97c0-19.82-4.17-33.64-12.26-41.72c-8.34-8.08-22.43-12-42.51-12
	c-9.13,0-18.52,1.04-28.16,3.39c-9.65,2.35-19.04,5.22-28.16,8.87c-4.17,1.83-7.3,2.87-9.13,3.39c-1.83,0.52-3.13,0.78-4.17,0.78
	c-3.65,0-5.48-2.61-5.48-8.08V31.81c0-4.17,0.52-7.3,1.83-9.13c1.3-1.83,3.65-3.65,7.3-5.48c9.13-4.69,20.08-8.61,32.86-11.73
	c12.78-3.39,26.34-4.95,40.68-4.95c31.03,0,53.72,7.04,68.32,21.12c14.34,14.08,21.64,35.47,21.64,64.15v84.49H220.96z
	 M115.09,209.93c8.61,0,17.47-1.56,26.86-4.69c9.39-3.13,17.73-8.87,24.77-16.69c4.17-4.95,7.3-10.43,8.87-16.69
	c1.56-6.26,2.61-13.82,2.61-22.69v-10.95c-7.56-1.83-15.65-3.39-23.99-4.43c-8.34-1.04-16.43-1.56-24.51-1.56
	c-17.47,0-30.25,3.39-38.86,10.43s-12.78,16.95-12.78,29.99c0,12.26,3.13,21.38,9.65,27.64C93.96,206.8,103.09,209.93,115.09,209.93
	z M324.49,238.09c-4.69,0-7.82-0.78-9.91-2.61c-2.09-1.56-3.91-5.22-5.48-10.17L247.82,23.73c-1.56-5.22-2.35-8.61-2.35-10.43
	c0-4.17,2.09-6.52,6.26-6.52h25.56c4.95,0,8.34,0.78,10.17,2.61c2.09,1.56,3.65,5.22,5.22,10.17l43.81,172.63l40.68-172.63
	c1.3-5.22,2.87-8.61,4.95-10.17s5.74-2.61,10.43-2.61h20.86c4.95,0,8.34,0.78,10.43,2.61c2.09,1.56,3.91,5.22,4.95,10.17L470,194.28
	l45.11-174.72c1.56-5.22,3.39-8.61,5.22-10.17c2.09-1.56,5.48-2.61,10.17-2.61h24.25c4.17,0,6.52,2.09,6.52,6.52
	c0,1.3-0.26,2.61-0.52,4.17c-0.26,1.56-0.78,3.65-1.83,6.52l-62.85,201.58c-1.56,5.22-3.39,8.61-5.48,10.17
	c-2.09,1.56-5.48,2.61-9.91,2.61h-22.43c-4.95,0-8.34-0.78-10.43-2.61s-3.91-5.22-4.95-10.43l-40.42-168.2L362.3,225.05
	c-1.3,5.22-2.87,8.61-4.95,10.43s-5.74,2.61-10.43,2.61H324.49z M659.59,245.13c-13.56,0-27.12-1.56-40.16-4.69
	c-13.04-3.13-23.21-6.52-29.99-10.43c-4.17-2.35-7.04-4.95-8.08-7.3c-1.04-2.35-1.56-4.95-1.56-7.3v-13.3c0-5.48,2.09-8.08,6-8.08
	c1.56,0,3.13,0.26,4.69,0.78c1.56,0.52,3.91,1.56,6.52,2.61c8.87,3.91,18.52,7.04,28.69,9.13c10.43,2.09,20.6,3.13,31.03,3.13
	c16.43,0,29.21-2.87,38.07-8.61c8.87-5.74,13.56-14.08,13.56-24.77c0-7.3-2.35-13.3-7.04-18.25c-4.69-4.95-13.56-9.39-26.34-13.56
	l-37.81-11.73c-19.04-6-33.12-14.86-41.72-26.6c-8.61-11.47-13.04-24.25-13.04-37.81c0-10.95,2.35-20.6,7.04-28.95
	s10.95-15.65,18.78-21.38c7.82-6,16.69-10.43,27.12-13.56C645.77,1.3,656.72,0,668.19,0c5.74,0,11.73,0.26,17.47,1.04
	c6,0.78,11.47,1.83,16.95,2.87c5.22,1.3,10.17,2.61,14.86,4.17s8.35,3.13,10.95,4.69c3.65,2.09,6.26,4.17,7.82,6.52
	c1.56,2.09,2.35,4.95,2.35,8.61v12.26c0,5.48-2.09,8.34-6,8.34c-2.09,0-5.48-1.04-9.91-3.13c-14.86-6.78-31.55-10.17-50.07-10.17
	c-14.86,0-26.6,2.35-34.68,7.3c-8.08,4.95-12.26,12.52-12.26,23.21c0,7.3,2.61,13.56,7.82,18.52c5.22,4.95,14.86,9.91,28.69,14.34
	l37.03,11.73c18.78,6,32.34,14.34,40.42,25.03s12,22.95,12,36.51c0,11.21-2.35,21.38-6.78,30.25c-4.69,8.87-10.95,16.69-19.04,22.95
	c-8.08,6.52-17.73,11.21-28.95,14.6C685.14,243.3,672.89,245.13,659.59,245.13z"/>
<path class="st1" d="M708.88,371.87c-85.8,63.37-210.45,97.01-317.63,97.01c-150.21,0-285.55-55.55-387.78-147.86
	c-8.08-7.3-0.78-17.21,8.87-11.47c110.57,64.15,246.96,103.01,388.04,103.01c95.18,0,199.76-19.82,295.98-60.5
	C710.7,345.53,722.96,361.44,708.88,371.87z M744.6,331.19c-10.95-14.08-72.5-6.78-100.4-3.39c-8.34,1.04-9.65-6.26-2.09-11.73
	c49.03-34.42,129.61-24.51,138.99-13.04c9.39,11.73-2.61,92.32-48.5,130.91c-7.04,6-13.82,2.87-10.69-4.95
	C732.35,403.16,755.55,345.01,744.6,331.19z"/>
</svg>
